<svg width="512" height="512" viewBox="0 0 512 512" fill="none" xmlns="http://www.w3.org/2000/svg">
<path d="M343.5 113.5H168.5C154.693 113.5 143.5 124.693 143.5 138.5V313.5C143.5 327.307 154.693 338.5 168.5 338.5H343.5C357.307 338.5 368.5 327.307 368.5 313.5V138.5C368.5 124.693 357.307 113.5 343.5 113.5Z" stroke="black" stroke-width="14" stroke-linecap="round" stroke-linejoin="round"/>
<path d="M212.25 201C222.605 201 231 192.605 231 182.25C231 171.895 222.605 163.5 212.25 163.5C201.895 163.5 193.5 171.895 193.5 182.25C193.5 192.605 201.895 201 212.25 201Z" stroke="black" stroke-width="14" stroke-linecap="round" stroke-linejoin="round"/>
<path d="M368.5 263.5L306 201L168.5 338.5" stroke="black" stroke-width="14" stroke-linecap="round" stroke-linejoin="round"/>
<path d="M36.94 434V392H44.62V421.82L67.18 392H74.44V434H66.76V404.24L44.2 434H36.94ZM95.5159 434.54C93.0759 434.54 90.6559 434.26 88.2559 433.7C85.8959 433.1 83.7559 432.26 81.8359 431.18L83.9359 425.6C85.4959 426.48 87.2559 427.16 89.2159 427.64C91.1759 428.12 93.1359 428.36 95.0959 428.36C96.7759 428.36 98.2159 428.2 99.4159 427.88C100.616 427.52 101.536 427 102.176 426.32C102.856 425.64 103.196 424.86 103.196 423.98C103.196 422.7 102.636 421.74 101.516 421.1C100.436 420.42 98.8759 420.08 96.8359 420.08H90.6559V415.04H96.2359C97.5159 415.04 98.5959 414.9 99.4759 414.62C100.396 414.34 101.096 413.92 101.576 413.36C102.056 412.8 102.296 412.14 102.296 411.38C102.296 410.62 101.996 409.96 101.396 409.4C100.836 408.8 100.016 408.36 98.9359 408.08C97.8559 407.76 96.5559 407.6 95.0359 407.6C93.4359 407.6 91.7759 407.8 90.0559 408.2C88.3759 408.6 86.6559 409.18 84.8959 409.94L82.9759 404.42C85.0159 403.5 86.9959 402.8 88.9159 402.32C90.8759 401.8 92.8159 401.52 94.7359 401.48C97.6559 401.36 100.256 401.66 102.536 402.38C104.816 403.1 106.616 404.14 107.936 405.5C109.256 406.86 109.916 408.46 109.916 410.3C109.916 411.82 109.436 413.2 108.476 414.44C107.556 415.64 106.276 416.58 104.636 417.26C103.036 417.94 101.196 418.28 99.1159 418.28L99.3559 416.66C102.916 416.66 105.716 417.38 107.756 418.82C109.796 420.22 110.816 422.14 110.816 424.58C110.816 426.54 110.156 428.28 108.836 429.8C107.516 431.28 105.696 432.44 103.376 433.28C101.096 434.12 98.4759 434.54 95.5159 434.54ZM132.82 434.42C129.54 434.42 126.62 433.72 124.06 432.32C121.5 430.88 119.48 428.92 118 426.44C116.52 423.96 115.78 421.14 115.78 417.98C115.78 414.78 116.52 411.96 118 409.52C119.48 407.04 121.5 405.1 124.06 403.7C126.62 402.3 129.54 401.6 132.82 401.6C136.14 401.6 139.08 402.3 141.64 403.7C144.24 405.1 146.26 407.02 147.7 409.46C149.18 411.9 149.92 414.74 149.92 417.98C149.92 421.14 149.18 423.96 147.7 426.44C146.26 428.92 144.24 430.88 141.64 432.32C139.08 433.72 136.14 434.42 132.82 434.42ZM132.82 428C134.66 428 136.3 427.6 137.74 426.8C139.18 426 140.3 424.84 141.1 423.32C141.94 421.8 142.36 420.02 142.36 417.98C142.36 415.9 141.94 414.12 141.1 412.64C140.3 411.12 139.18 409.96 137.74 409.16C136.3 408.36 134.68 407.96 132.88 407.96C131.04 407.96 129.4 408.36 127.96 409.16C126.56 409.96 125.44 411.12 124.6 412.64C123.76 414.12 123.34 415.9 123.34 417.98C123.34 420.02 123.76 421.8 124.6 423.32C125.44 424.84 126.56 426 127.96 426.8C129.4 427.6 131.02 428 132.82 428ZM172.629 434.6C169.989 434.6 167.629 434.2 165.549 433.4C163.469 432.6 161.669 431.38 160.149 429.74C158.669 428.06 157.529 425.94 156.729 423.38C155.929 420.82 155.529 417.78 155.529 414.26C155.529 411.7 155.749 409.36 156.189 407.24C156.629 405.12 157.289 403.22 158.169 401.54C159.049 399.82 160.149 398.3 161.469 396.98C162.829 395.66 164.409 394.56 166.209 393.68C168.009 392.8 170.049 392.12 172.329 391.64L187.209 388.46L188.289 395.18L174.789 397.94C174.029 398.1 173.109 398.34 172.029 398.66C170.989 398.94 169.909 399.38 168.789 399.98C167.709 400.54 166.689 401.36 165.729 402.44C164.809 403.48 164.049 404.84 163.449 406.52C162.889 408.16 162.609 410.22 162.609 412.7C162.609 413.46 162.629 414.04 162.669 414.44C162.749 414.8 162.809 415.2 162.849 415.64C162.929 416.04 162.969 416.64 162.969 417.44L160.149 414.5C160.949 412.46 162.049 410.72 163.449 409.28C164.889 407.8 166.549 406.68 168.429 405.92C170.349 405.12 172.429 404.72 174.669 404.72C177.669 404.72 180.329 405.34 182.649 406.58C184.969 407.82 186.789 409.56 188.109 411.8C189.429 414.04 190.089 416.58 190.089 419.42C190.089 422.38 189.369 425 187.929 427.28C186.489 429.56 184.449 431.36 181.809 432.68C179.209 433.96 176.149 434.6 172.629 434.6ZM173.229 428.54C175.029 428.54 176.609 428.16 177.969 427.4C179.369 426.6 180.449 425.52 181.209 424.16C182.009 422.8 182.409 421.28 182.409 419.6C182.409 417.92 182.009 416.46 181.209 415.22C180.449 413.94 179.369 412.92 177.969 412.16C176.609 411.4 174.989 411.02 173.109 411.02C171.309 411.02 169.689 411.38 168.249 412.1C166.849 412.82 165.749 413.82 164.949 415.1C164.189 416.34 163.809 417.78 163.809 419.42C163.809 421.1 164.209 422.64 165.009 424.04C165.809 425.44 166.909 426.54 168.309 427.34C169.749 428.14 171.389 428.54 173.229 428.54ZM215.109 434.42C212.509 434.42 210.129 433.82 207.969 432.62C205.849 431.42 204.149 429.62 202.869 427.22C201.629 424.78 201.009 421.7 201.009 417.98C201.009 414.22 201.609 411.14 202.809 408.74C204.049 406.34 205.729 404.56 207.849 403.4C209.969 402.2 212.389 401.6 215.109 401.6C218.269 401.6 221.049 402.28 223.449 403.64C225.889 405 227.809 406.9 229.209 409.34C230.649 411.78 231.369 414.66 231.369 417.98C231.369 421.3 230.649 424.2 229.209 426.68C227.809 429.12 225.889 431.02 223.449 432.38C221.049 433.74 218.269 434.42 215.109 434.42ZM197.349 445.64V401.96H204.489V409.52L204.249 418.04L204.849 426.56V445.64H197.349ZM214.269 428C216.069 428 217.669 427.6 219.069 426.8C220.509 426 221.649 424.84 222.489 423.32C223.329 421.8 223.749 420.02 223.749 417.98C223.749 415.9 223.329 414.12 222.489 412.64C221.649 411.12 220.509 409.96 219.069 409.16C217.669 408.36 216.069 407.96 214.269 407.96C212.469 407.96 210.849 408.36 209.409 409.16C207.969 409.96 206.829 411.12 205.989 412.64C205.149 414.12 204.729 415.9 204.729 417.98C204.729 420.02 205.149 421.8 205.989 423.32C206.829 424.84 207.969 426 209.409 426.8C210.849 427.6 212.469 428 214.269 428ZM257.863 434V427.52L257.443 426.14V414.8C257.443 412.6 256.783 410.9 255.463 409.7C254.143 408.46 252.143 407.84 249.463 407.84C247.663 407.84 245.883 408.12 244.123 408.68C242.403 409.24 240.943 410.02 239.743 411.02L236.803 405.56C238.523 404.24 240.563 403.26 242.923 402.62C245.323 401.94 247.803 401.6 250.363 401.6C255.003 401.6 258.583 402.72 261.103 404.96C263.663 407.16 264.943 410.58 264.943 415.22V434H257.863ZM247.783 434.42C245.383 434.42 243.283 434.02 241.483 433.22C239.683 432.38 238.283 431.24 237.283 429.8C236.323 428.32 235.843 426.66 235.843 424.82C235.843 423.02 236.263 421.4 237.103 419.96C237.983 418.52 239.403 417.38 241.363 416.54C243.323 415.7 245.923 415.28 249.163 415.28H258.463V420.26H249.703C247.143 420.26 245.423 420.68 244.543 421.52C243.663 422.32 243.223 423.32 243.223 424.52C243.223 425.88 243.763 426.96 244.843 427.76C245.923 428.56 247.423 428.96 249.343 428.96C251.183 428.96 252.823 428.54 254.263 427.7C255.743 426.86 256.803 425.62 257.443 423.98L258.703 428.48C257.983 430.36 256.683 431.82 254.803 432.86C252.963 433.9 250.623 434.42 247.783 434.42ZM312.444 434L303.084 418.64L309.204 414.86L321.384 434H312.444ZM297.024 421.16V414.92H307.764V421.16H297.024ZM309.924 418.88L302.844 418.04L312.564 401.96H320.544L309.924 418.88ZM278.604 434H269.724L281.844 414.86L287.964 418.64L278.604 434ZM299.244 434H291.804V401.96H299.244V434ZM294.024 421.16H283.344V414.92H294.024V421.16ZM281.124 418.88L270.504 401.96H278.484L288.144 418.04L281.124 418.88ZM340.843 434.42C337.283 434.42 334.163 433.72 331.483 432.32C328.843 430.88 326.783 428.92 325.303 426.44C323.863 423.96 323.143 421.14 323.143 417.98C323.143 414.78 323.843 411.96 325.243 409.52C326.683 407.04 328.643 405.1 331.123 403.7C333.643 402.3 336.503 401.6 339.703 401.6C342.823 401.6 345.603 402.28 348.043 403.64C350.483 405 352.403 406.92 353.803 409.4C355.203 411.88 355.903 414.8 355.903 418.16C355.903 418.48 355.883 418.84 355.843 419.24C355.843 419.64 355.823 420.02 355.783 420.38H329.083V415.4H351.823L348.883 416.96C348.923 415.12 348.543 413.5 347.743 412.1C346.943 410.7 345.843 409.6 344.443 408.8C343.083 408 341.503 407.6 339.703 407.6C337.863 407.6 336.243 408 334.843 408.8C333.483 409.6 332.403 410.72 331.603 412.16C330.843 413.56 330.463 415.22 330.463 417.14V418.34C330.463 420.26 330.903 421.96 331.783 423.44C332.663 424.92 333.903 426.06 335.503 426.86C337.103 427.66 338.943 428.06 341.023 428.06C342.823 428.06 344.443 427.78 345.883 427.22C347.323 426.66 348.603 425.78 349.723 424.58L353.743 429.2C352.303 430.88 350.483 432.18 348.283 433.1C346.123 433.98 343.643 434.42 340.843 434.42ZM364.106 434V401.96H371.606V414.98H387.746V401.96H395.246V434H387.746V421.34H371.606V434H364.106ZM405.298 434V401.96H412.798V423.08L430.498 401.96H437.338V434H429.838V412.88L412.198 434H405.298ZM462.367 434.42C458.807 434.42 455.687 433.72 453.007 432.32C450.367 430.88 448.307 428.92 446.827 426.44C445.387 423.96 444.667 421.14 444.667 417.98C444.667 414.78 445.367 411.96 446.767 409.52C448.207 407.04 450.167 405.1 452.647 403.7C455.167 402.3 458.027 401.6 461.227 401.6C464.347 401.6 467.127 402.28 469.567 403.64C472.007 405 473.927 406.92 475.327 409.4C476.727 411.88 477.427 414.8 477.427 418.16C477.427 418.48 477.407 418.84 477.367 419.24C477.367 419.64 477.347 420.02 477.307 420.38H450.607V415.4H473.347L470.407 416.96C470.447 415.12 470.067 413.5 469.267 412.1C468.467 410.7 467.367 409.6 465.967 408.8C464.607 408 463.027 407.6 461.227 407.6C459.387 407.6 457.767 408 456.367 408.8C455.007 409.6 453.927 410.72 453.127 412.16C452.367 413.56 451.987 415.22 451.987 417.14V418.34C451.987 420.26 452.427 421.96 453.307 423.44C454.187 424.92 455.427 426.06 457.027 426.86C458.627 427.66 460.467 428.06 462.547 428.06C464.347 428.06 465.967 427.78 467.407 427.22C468.847 426.66 470.127 425.78 471.247 424.58L475.267 429.2C473.827 430.88 472.007 432.18 469.807 433.1C467.647 433.98 465.167 434.42 462.367 434.42Z" fill="black"/>
</svg>
