<svg width="512" height="512" viewBox="0 0 512 512" fill="none" xmlns="http://www.w3.org/2000/svg">
<rect width="512" height="512" fill="white"/>
<path d="M426.333 438.25V396.417C426.333 374.227 417.343 352.946 401.34 337.255C385.337 321.565 363.632 312.75 341 312.75H170.333C147.702 312.75 125.997 321.565 109.994 337.255C93.9904 352.946 85 374.227 85 396.417V438.25" fill="#AFAFAF"/>
<path d="M426.333 438.25V396.417C426.333 374.227 417.343 352.946 401.34 337.255C385.337 321.565 363.632 312.75 341 312.75H170.333C147.702 312.75 125.997 321.565 109.994 337.255C93.9904 352.946 85 374.227 85 396.417V438.25" stroke="#AFAFAF" stroke-width="2" stroke-linecap="round" stroke-linejoin="round"/>
<path d="M256.333 250.333C303.462 250.333 341.667 212.874 341.667 166.667C341.667 120.459 303.462 83 256.333 83C209.205 83 171 120.459 171 166.667C171 212.874 209.205 250.333 256.333 250.333Z" fill="#AFAFAF" stroke="#AFAFAF" stroke-width="2" stroke-linecap="round" stroke-linejoin="round"/>
</svg>
