<svg width="170" height="39" viewBox="0 0 170 39" fill="none" xmlns="http://www.w3.org/2000/svg">
<path d="M4.18039 17.4268H16.3035V20.893H4.18039V17.4268ZM4.52875 27.1451H18.2892V30.6761H0V8H17.8015V11.531H4.52875V27.1451ZM19.889 30.6761L28.9465 12.1465H33.301L42.3236 30.6761H37.9691L30.3748 14.2197H31.8378L24.1739 30.6761H19.889ZM24.3829 26.6592L25.5673 23.5493H35.9485L37.133 26.6592H24.3829ZM59.9088 25.2014C59.9088 26.3676 59.5604 27.3825 58.8637 28.2465C58.1903 29.1104 57.2264 29.7907 55.9723 30.2873C54.7181 30.7625 53.1853 31 51.3738 31C49.8177 31 48.2849 30.8056 46.7754 30.4169C45.2889 30.0282 44.093 29.5205 43.1872 28.8944L44.8246 25.7197C45.6606 26.3028 46.6824 26.767 47.8902 27.1127C49.098 27.4583 50.3287 27.631 51.5828 27.631C53.0693 27.631 54.1026 27.4259 54.6833 27.0155C55.264 26.6051 55.5542 26.1191 55.5542 25.5578C55.5542 25.0394 55.3337 24.629 54.8923 24.3268C54.4743 24.0245 53.9054 23.7868 53.1853 23.6141C52.4886 23.4197 51.7222 23.2471 50.8861 23.0958C50.05 22.9231 49.214 22.7287 48.3779 22.5127C47.5418 22.2966 46.7754 21.9944 46.0787 21.6056C45.3819 21.2169 44.8131 20.6986 44.3717 20.0507C43.9536 19.4028 43.7446 18.5823 43.7446 17.5887C43.7446 16.4442 44.093 15.44 44.7897 14.5761C45.4865 13.7121 46.4619 13.0428 47.716 12.5676C48.9935 12.0924 50.4914 11.8549 52.2099 11.8549C53.4407 11.8549 54.6718 11.9845 55.9026 12.2437C57.1567 12.4811 58.2481 12.8809 59.1772 13.4423L57.6792 16.6169C56.7968 16.0769 55.8677 15.7099 54.8923 15.5155C53.9402 15.2994 52.9997 15.1915 52.0706 15.1915C50.6771 15.1915 49.6668 15.3966 49.0398 15.807C48.4361 16.2175 48.134 16.7358 48.134 17.362C48.134 17.8803 48.3431 18.2907 48.7611 18.593C49.2025 18.8952 49.7713 19.1437 50.4681 19.338C51.1648 19.5107 51.9312 19.6727 52.7673 19.8239C53.6267 19.9752 54.4628 20.1696 55.2755 20.407C56.1116 20.6231 56.878 20.9254 57.5747 21.3141C58.2948 21.6811 58.8637 22.178 59.2817 22.8042C59.6998 23.4304 59.9088 24.2296 59.9088 25.2014ZM68.4218 30.6761V23.2254L69.2579 25.8169L60.3397 12.1465H65.0078L71.9751 22.707H69.5366L76.5039 12.1465H80.963L72.0448 25.8169L72.846 23.2254V30.6761H68.4218ZM84.0976 30.6761V8H88.6263V27.1127H101.376V30.6761H84.0976ZM102.558 30.6761L111.615 12.1465H115.97L124.993 30.6761H120.638L113.044 14.2197H114.507L106.843 30.6761H102.558ZM107.052 26.6592L108.236 23.5493H118.617L119.802 26.6592H107.052ZM127.842 30.6761V12.1465H131.465L143.483 25.6873H141.846V12.1465H146.201V30.6761H142.578L130.559 17.1352H132.231V30.6761H127.842ZM169.686 28.6352C169.013 29.1318 168.235 29.564 167.352 29.931C166.493 30.2766 165.587 30.5358 164.635 30.7085C163.683 30.9028 162.719 31 161.744 31C159.607 31 157.691 30.5896 155.996 29.769C154.324 28.9268 153.011 27.7823 152.059 26.3352C151.107 24.8882 150.631 23.2471 150.631 21.4113C150.631 19.5755 151.107 17.9451 152.059 16.5197C153.011 15.0727 154.312 13.9389 155.961 13.1183C157.633 12.2761 159.526 11.8549 161.639 11.8549C163.497 11.8549 165.123 12.1141 166.516 12.6324C167.91 13.129 169.071 13.9065 170 14.9648L167.143 17.5239C166.423 16.7682 165.611 16.2175 164.705 15.8718C163.799 15.5048 162.8 15.3211 161.709 15.3211C160.431 15.3211 159.282 15.5803 158.26 16.0986C157.261 16.6169 156.472 17.3403 155.891 18.269C155.334 19.1761 155.055 20.2234 155.055 21.4113C155.055 22.5992 155.345 23.6572 155.926 24.5859C156.507 25.5147 157.308 26.238 158.33 26.7563C159.352 27.2746 160.524 27.5338 161.848 27.5338C162.893 27.5338 163.845 27.3825 164.705 27.0803C165.587 26.778 166.412 26.3245 167.178 25.7197L169.686 28.6352ZM165.541 28.6676V21.2493H169.686V28.6352L165.541 28.6676Z" fill="#009F10"/>
</svg>
